<svg width="350" height="301" viewBox="0 0 350 301" fill="none" xmlns="http://www.w3.org/2000/svg">
<path d="M148.486 186.94C162.276 135.368 129.193 82.013 72.543 64.798L72.464 64.633C138.783 68.119 191.27 121.391 192.795 186.94H148.486Z" fill="url(#paint0_linear_111_428)"/>
<path d="M212.391 186.94C205.135 115.191 146.85 61.212 76.402 61.212C74.573 61.212 72.723 61.252 70.887 61.324L70.721 60.967C80.667 58.852 90.838 57.778 100.983 57.778C173.921 57.778 237.789 110.814 256.766 186.94H212.391Z" fill="url(#paint1_linear_111_428)"/>
<path d="M216.794 100.349C208.797 92.369 200.067 85.207 190.815 79.034C195.603 75.553 199.009 69.96 200.263 63.422C201.708 55.873 200.117 48.132 196.008 42.711C188.312 32.556 173.826 30.426 163.032 30.426H123.387V53.186C115.968 52.144 108.546 51.617 101.31 51.617C98.04 51.617 94.611 51.754 90.601 52.044V0.365005H161.549C192.217 0.365005 212.624 7.453 223.939 22.033C241.038 44.059 237.466 82.708 216.794 100.349Z" fill="url(#paint2_linear_111_428)"/>
<path d="M90.603 186.102V78.773C103.44 85.435 114.463 94.187 123.389 104.813V186.102H90.603Z" fill="url(#paint3_linear_111_428)"/>
<path d="M26.544 280.528C22.232 280.528 18.368 279.828 14.952 278.428C11.536 277.028 8.792 274.956 6.72 272.212C4.704 269.468 3.64 266.164 3.528 262.3H18.816C19.04 264.484 19.796 266.164 21.084 267.34C22.372 268.46 24.052 269.02 26.124 269.02C28.252 269.02 29.932 268.544 31.164 267.592C32.396 266.584 33.012 265.212 33.012 263.476C33.012 262.02 32.508 260.816 31.5 259.864C30.548 258.912 29.344 258.128 27.888 257.512C26.488 256.896 24.472 256.196 21.84 255.412C18.032 254.236 14.924 253.06 12.516 251.884C10.108 250.708 8.036 248.972 6.3 246.676C4.564 244.38 3.696 241.384 3.696 237.688C3.696 232.2 5.684 227.916 9.66 224.836C13.636 221.7 18.816 220.132 25.2 220.132C31.696 220.132 36.932 221.7 40.908 224.836C44.884 227.916 47.012 232.228 47.292 237.772H31.752C31.64 235.868 30.94 234.384 29.652 233.32C28.364 232.2 26.712 231.64 24.696 231.64C22.96 231.64 21.56 232.116 20.496 233.068C19.432 233.964 18.9 235.28 18.9 237.016C18.9 238.92 19.796 240.404 21.588 241.468C23.38 242.532 26.18 243.68 29.988 244.912C33.796 246.2 36.876 247.432 39.228 248.608C41.636 249.784 43.708 251.492 45.444 253.732C47.18 255.972 48.048 258.856 48.048 262.384C48.048 265.744 47.18 268.796 45.444 271.54C43.764 274.284 41.3 276.468 38.052 278.092C34.804 279.716 30.968 280.528 26.544 280.528ZM49.8317 256.42C49.8317 251.604 50.7277 247.376 52.5197 243.736C54.3677 240.096 56.8597 237.296 59.9957 235.336C63.1317 233.376 66.6317 232.396 70.4957 232.396C73.7997 232.396 76.6837 233.068 79.1477 234.412C81.6677 235.756 83.5997 237.52 84.9437 239.704V233.068H99.3077V279.94H84.9437V273.304C83.5437 275.488 81.5837 277.252 79.0637 278.596C76.5997 279.94 73.7157 280.612 70.4117 280.612C66.6037 280.612 63.1317 279.632 59.9957 277.672C56.8597 275.656 54.3677 272.828 52.5197 269.188C50.7277 265.492 49.8317 261.236 49.8317 256.42ZM84.9437 256.504C84.9437 252.92 83.9357 250.092 81.9197 248.02C79.9597 245.948 77.5517 244.912 74.6957 244.912C71.8397 244.912 69.4037 245.948 67.3877 248.02C65.4277 250.036 64.4477 252.836 64.4477 256.42C64.4477 260.004 65.4277 262.86 67.3877 264.988C69.4037 267.06 71.8397 268.096 74.6957 268.096C77.5517 268.096 79.9597 267.06 81.9197 264.988C83.9357 262.916 84.9437 260.088 84.9437 256.504ZM129.019 244.996H121.291V279.94H106.927V244.996H101.719V233.068H106.927V231.724C106.927 225.956 108.579 221.588 111.883 218.62C115.187 215.596 120.031 214.084 126.415 214.084C127.479 214.084 128.263 214.112 128.767 214.168V226.348C126.023 226.18 124.091 226.572 122.971 227.524C121.851 228.476 121.291 230.184 121.291 232.648V233.068H129.019V244.996ZM175.753 255.748C175.753 257.092 175.669 258.492 175.501 259.948H142.993C143.217 262.86 144.141 265.1 145.765 266.668C147.445 268.18 149.489 268.936 151.897 268.936C155.481 268.936 157.973 267.424 159.373 264.4H174.661C173.877 267.48 172.449 270.252 170.377 272.716C168.361 275.18 165.813 277.112 162.733 278.512C159.653 279.912 156.209 280.612 152.401 280.612C147.809 280.612 143.721 279.632 140.137 277.672C136.553 275.712 133.753 272.912 131.737 269.272C129.721 265.632 128.713 261.376 128.713 256.504C128.713 251.632 129.693 247.376 131.653 243.736C133.669 240.096 136.469 237.296 140.053 235.336C143.637 233.376 147.753 232.396 152.401 232.396C156.937 232.396 160.969 233.348 164.497 235.252C168.025 237.156 170.769 239.872 172.729 243.4C174.745 246.928 175.753 251.044 175.753 255.748ZM161.053 251.968C161.053 249.504 160.213 247.544 158.533 246.088C156.853 244.632 154.753 243.904 152.233 243.904C149.825 243.904 147.781 244.604 146.101 246.004C144.477 247.404 143.469 249.392 143.077 251.968H161.053Z" fill="url(#paint4_linear_111_428)"/>
<path d="M209.203 279.94L196.939 257.68H193.495V279.94H179.131V220.972H203.239C207.887 220.972 211.835 221.784 215.083 223.408C218.387 225.032 220.851 227.272 222.475 230.128C224.099 232.928 224.911 236.064 224.911 239.536C224.911 243.456 223.791 246.956 221.551 250.036C219.367 253.116 216.119 255.3 211.807 256.588L225.415 279.94H209.203ZM193.495 247.516H202.399C205.031 247.516 206.991 246.872 208.279 245.584C209.623 244.296 210.295 242.476 210.295 240.124C210.295 237.884 209.623 236.12 208.279 234.832C206.991 233.544 205.031 232.9 202.399 232.9H193.495V247.516ZM236.952 228.196C234.432 228.196 232.36 227.468 230.736 226.012C229.168 224.5 228.384 222.652 228.384 220.468C228.384 218.228 229.168 216.38 230.736 214.924C232.36 213.412 234.432 212.656 236.952 212.656C239.416 212.656 241.432 213.412 243 214.924C244.624 216.38 245.436 218.228 245.436 220.468C245.436 222.652 244.624 224.5 243 226.012C241.432 227.468 239.416 228.196 236.952 228.196ZM244.092 233.068V279.94H229.728V233.068H244.092ZM247.445 256.42C247.445 251.604 248.341 247.376 250.133 243.736C251.981 240.096 254.473 237.296 257.609 235.336C260.745 233.376 264.245 232.396 268.109 232.396C271.189 232.396 273.989 233.04 276.509 234.328C279.085 235.616 281.101 237.352 282.557 239.536V217.78H296.921V279.94H282.557V273.22C281.213 275.46 279.281 277.252 276.761 278.596C274.297 279.94 271.413 280.612 268.109 280.612C264.245 280.612 260.745 279.632 257.609 277.672C254.473 275.656 251.981 272.828 250.133 269.188C248.341 265.492 247.445 261.236 247.445 256.42ZM282.557 256.504C282.557 252.92 281.549 250.092 279.533 248.02C277.573 245.948 275.165 244.912 272.309 244.912C269.453 244.912 267.017 245.948 265.001 248.02C263.041 250.036 262.061 252.836 262.061 256.42C262.061 260.004 263.041 262.86 265.001 264.988C267.017 267.06 269.453 268.096 272.309 268.096C275.165 268.096 277.573 267.06 279.533 264.988C281.549 262.916 282.557 260.088 282.557 256.504ZM347.297 255.748C347.297 257.092 347.213 258.492 347.045 259.948H314.537C314.761 262.86 315.685 265.1 317.309 266.668C318.989 268.18 321.033 268.936 323.441 268.936C327.025 268.936 329.517 267.424 330.917 264.4H346.205C345.421 267.48 343.993 270.252 341.921 272.716C339.905 275.18 337.357 277.112 334.277 278.512C331.197 279.912 327.753 280.612 323.945 280.612C319.353 280.612 315.265 279.632 311.681 277.672C308.097 275.712 305.297 272.912 303.281 269.272C301.265 265.632 300.257 261.376 300.257 256.504C300.257 251.632 301.237 247.376 303.197 243.736C305.213 240.096 308.013 237.296 311.597 235.336C315.181 233.376 319.297 232.396 323.945 232.396C328.481 232.396 332.513 233.348 336.041 235.252C339.569 237.156 342.313 239.872 344.273 243.4C346.289 246.928 347.297 251.044 347.297 255.748ZM332.597 251.968C332.597 249.504 331.757 247.544 330.077 246.088C328.397 244.632 326.297 243.904 323.777 243.904C321.369 243.904 319.325 244.604 317.645 246.004C316.021 247.404 315.013 249.392 314.621 251.968H332.597Z" fill="url(#paint5_linear_111_428)"/>
<defs>
<linearGradient id="paint0_linear_111_428" x1="145.82" y1="94.1977" x2="43.2355" y2="167.449" gradientUnits="userSpaceOnUse">
<stop stop-color="#004E6B"/>
<stop offset="1" stop-color="#262261"/>
</linearGradient>
<linearGradient id="paint1_linear_111_428" x1="184.137" y1="88.9998" x2="69.714" y2="208.62" gradientUnits="userSpaceOnUse">
<stop stop-color="#004E6B"/>
<stop offset="1" stop-color="#262261"/>
</linearGradient>
<linearGradient id="paint2_linear_111_428" x1="538.178" y1="-32.8877" x2="506.343" y2="124.473" gradientUnits="userSpaceOnUse">
<stop stop-color="#00EE0A"/>
<stop offset="1" stop-color="#0B4E00"/>
</linearGradient>
<linearGradient id="paint3_linear_111_428" x1="192.357" y1="43.0775" x2="104.532" y2="135.017" gradientUnits="userSpaceOnUse">
<stop stop-color="#00EE0A"/>
<stop offset="1" stop-color="#0B4E00"/>
</linearGradient>
<linearGradient id="paint4_linear_111_428" x1="1086.25" y1="166.349" x2="1072.42" y2="330.65" gradientUnits="userSpaceOnUse">
<stop stop-color="#00EE0A"/>
<stop offset="1" stop-color="#0B4E00"/>
</linearGradient>
<linearGradient id="paint5_linear_111_428" x1="213.366" y1="224.354" x2="151.868" y2="379.029" gradientUnits="userSpaceOnUse">
<stop stop-color="#004E6B"/>
<stop offset="1" stop-color="#262261"/>
</linearGradient>
</defs>
</svg>
